<svg width="20" height="20" viewBox="0 0 20 20" fill="none" xmlns="http://www.w3.org/2000/svg">
<path d="M10.001 20C4.478 20 0.000999451 15.523 0.000999451 10C0.000999451 4.477 4.478 0 10.001 0C15.524 0 20.001 4.477 20.001 10C20.001 15.523 15.524 20 10.001 20ZM6.891 11.17L6.904 11.163L7.774 14.033C7.886 14.344 8.04 14.4 8.227 14.374C8.415 14.349 8.514 14.248 8.637 14.13L9.825 12.982L12.375 14.87C12.841 15.127 13.176 14.994 13.292 14.438L14.95 6.616C15.133 5.888 14.811 5.596 14.247 5.828L4.514 9.588C3.85 9.854 3.854 10.226 4.394 10.391L6.891 11.17Z" fill="white"/>
</svg>
