<svg width="20" height="20" viewBox="0 0 20 20" fill="none" xmlns="http://www.w3.org/2000/svg">
<mask id="mask0_0_702" style="mask-type:luminance" maskUnits="userSpaceOnUse" x="0" y="0" width="20" height="20">
<path fill-rule="evenodd" clip-rule="evenodd" d="M0 0H19.4658V20H0V0Z" fill="white"/>
</mask>
<g mask="url(#mask0_0_702)">
<path fill-rule="evenodd" clip-rule="evenodd" d="M13.8022 18.5058C14.9082 18.5058 15.9516 18.0718 16.7446 17.2788C17.5376 16.4858 17.9716 15.4424 17.9716 14.3364V5.66361C17.9716 4.5576 17.5376 3.51419 16.7446 2.7212C15.9516 1.92821 14.9082 1.49416 13.8022 1.49416H5.66361C4.5576 1.49416 3.51419 1.92821 2.7212 2.7212C1.92821 3.51419 1.49416 4.5576 1.49416 5.66361V14.3364C1.49416 15.4424 1.92821 16.4858 2.7212 17.2788C3.51419 18.0718 4.5576 18.5058 5.66361 18.5058H13.8022ZM13.8022 20H5.66361C2.55008 20 0 17.4499 0 14.3364V5.66361C0 2.55008 2.55008 0 5.66361 0H13.8022C16.9157 0 19.4658 2.55008 19.4658 5.66361V14.3364C19.4658 17.4541 16.9157 20 13.8022 20Z" fill="white"/>
</g>
<path fill-rule="evenodd" clip-rule="evenodd" d="M9.73291 6.41901C7.79635 6.41901 6.2229 7.99246 6.2229 9.92902C6.2229 11.8656 7.79635 13.439 9.73291 13.439C11.6695 13.439 13.2429 11.8656 13.2429 9.92902C13.2429 7.99246 11.6736 6.41901 9.73291 6.41901ZM15.1211 9.92485C15.1211 12.8839 12.7212 15.2838 9.76213 15.2838C6.80303 15.2838 4.4032 12.8839 4.4032 9.92485C4.4032 6.96575 6.80303 4.56592 9.76213 4.56592C12.7212 4.56592 15.1211 6.96158 15.1211 9.92485Z" fill="white"/>
<path fill-rule="evenodd" clip-rule="evenodd" d="M15.2087 3.20947C15.9094 3.20947 16.4775 3.77754 16.4775 4.47825C16.4775 5.17896 15.9094 5.74704 15.2087 5.74704C14.508 5.74704 13.9399 5.17896 13.9399 4.47825C13.9399 3.77754 14.508 3.20947 15.2087 3.20947Z" fill="white"/>
</svg>
