<svg width="120" height="103" viewBox="0 0 120 103" fill="none" xmlns="http://www.w3.org/2000/svg">
<path d="M52.538 85.3687C57.204 86.525 64.7339 86.3997 64.5482 85.1688C64.5044 84.8781 64.6896 84.8521 64.9582 85.1106C65.2312 85.3729 69.4803 84.1166 74.5564 82.2728C87.9453 77.4094 93.7599 76.3577 99.0449 77.8435C101.465 78.524 102.912 78.4398 102.79 77.6255C102.75 77.3653 101.252 75.9173 99.4591 74.4077C95.6762 71.2218 92.7212 66.9785 91.7019 63.2685C91.3102 61.8424 90.8595 60.5404 90.7004 60.3751C90.5413 60.2099 90.4963 59.8755 90.6003 59.6321C90.7044 59.3886 90.5696 58.0972 90.3008 56.7624C90.032 55.4275 89.5457 50.1623 89.2202 45.0618C88.5277 34.2101 87.9557 31.3463 86.0162 29.0209C84.1358 26.7665 79.8551 24.9252 76.6511 24.9924C73.577 25.057 69.0445 26.5432 69.0087 27.4983C68.9933 27.9074 68.8502 28.0565 68.6906 27.8297C68.531 27.6029 67.8557 27.7795 67.1901 28.2222C66.5245 28.6648 65.7011 28.9078 65.3603 28.7622C65.0196 28.6165 64.2797 26.8686 63.7162 24.8777C63.1526 22.8869 62.5285 21.1874 62.3293 21.1012C62.13 21.015 62.0114 21.2391 62.0657 21.5992C62.1274 22.0082 62.0193 22.0479 61.7779 21.7049C61.5653 21.4028 61.6112 21.0009 61.8799 20.8117C62.5019 20.3739 61.2079 17.814 58.9726 15.0601C57.7026 13.4956 56.5626 12.6303 54.7401 11.8474C50.0543 9.83471 47.2688 11.2209 41.6483 18.3628C37.9758 23.0295 34.1156 26.3195 29.9794 28.3083C28.3411 29.096 27.0399 29.9078 27.0878 30.1123C27.1358 30.3167 27.0875 30.3355 26.9807 30.1541C26.8739 29.9727 25.6825 29.9644 24.3332 30.1355C22.8211 30.3274 20.6811 30.1015 18.7552 29.5466C13.5681 28.0522 13.1392 29.0707 16.9961 33.7236C19.9338 37.2676 22.894 44.3368 24.3561 51.3002C26.3958 61.0147 27.6581 65.688 28.2194 65.6034C28.5487 65.5538 28.6027 65.6647 28.3393 65.8501C27.7439 66.2692 28.6751 68.4206 29.3369 68.1551C29.6019 68.0488 29.6292 68.2189 29.3976 68.5331C28.6987 69.4814 33.142 75.3217 36.3111 77.6204C39.6926 80.073 48.8893 84.4645 52.538 85.3687ZM42.8624 65.3302C41.9996 64.7049 41.1957 63.9493 41.076 63.6512C40.9564 63.353 43.1596 61.06 45.9719 58.5555C48.7843 56.0511 51.2267 53.6371 51.3995 53.191C51.5721 52.7449 51.1336 51.4096 50.4245 50.2236C48.596 47.1652 48.2117 44.5846 49.2299 42.2022C51.4748 36.9496 57.3714 35.2635 62.4785 38.4139C65.7934 40.4587 67.2318 42.9676 67.2019 46.6524C67.167 50.9641 64.6224 53.8735 60.2136 54.6423C57.467 55.1213 57.2247 55.7201 56.5722 63.6399C56.0634 69.8161 56.0264 69.9616 54.826 70.5194C53.6823 71.0507 53.2905 70.9333 49.0155 68.7781C46.4942 67.507 43.7253 65.9555 42.8624 65.3302Z" fill="#F24D4B"/>
</svg>
